<svg id="visual" viewBox="0 0 900 600" width="900" height="600" xmlns="http://www.w3.org/2000/svg" xmlns:xlink="http://www.w3.org/1999/xlink" version="1.1"><g stroke-width="1" stroke-linejoin="bevel"><path d="M473 302L418 230L388 312Z" fill="#0c182a" stroke="#0c182a"></path><path d="M473 302L461 206L418 230Z" fill="#11141b" stroke="#11141b"></path><path d="M418 230L319 299L388 312Z" fill="#11141b" stroke="#11141b"></path><path d="M319 299L396 399L388 312Z" fill="#101621" stroke="#101621"></path><path d="M388 312L396 399L473 302Z" fill="#121212" stroke="#121212"></path><path d="M461 206L330 188L418 230Z" fill="#0f1724" stroke="#0f1724"></path><path d="M418 230L330 188L319 299Z" fill="#121315" stroke="#121315"></path><path d="M587 371L586 301L473 302Z" fill="#0e1827" stroke="#0e1827"></path><path d="M473 302L586 301L461 206Z" fill="#121418" stroke="#121418"></path><path d="M396 399L522 414L473 302Z" fill="#11141b" stroke="#11141b"></path><path d="M522 414L587 371L473 302Z" fill="#121418" stroke="#121418"></path><path d="M211 364L277 396L319 299Z" fill="#0e1827" stroke="#0e1827"></path><path d="M319 299L277 396L396 399Z" fill="#121418" stroke="#121418"></path><path d="M396 399L525 507L522 414Z" fill="#0f1724" stroke="#0f1724"></path><path d="M682 236L640 239L698 289Z" fill="#121212" stroke="#121212"></path><path d="M586 301L640 239L461 206Z" fill="#0c182a" stroke="#0c182a"></path><path d="M277 396L364 491L396 399Z" fill="#0a192d" stroke="#0a192d"></path><path d="M461 206L371 65L330 188Z" fill="#101621" stroke="#101621"></path><path d="M497 63L371 65L461 206Z" fill="#121315" stroke="#121315"></path><path d="M589 99L497 63L461 206Z" fill="#081a30" stroke="#081a30"></path><path d="M330 188L196 284L319 299Z" fill="#081a30" stroke="#081a30"></path><path d="M166 236L196 284L330 188Z" fill="#11141b" stroke="#11141b"></path><path d="M196 284L211 364L319 299Z" fill="#11151e" stroke="#11151e"></path><path d="M277 396L328 523L364 491Z" fill="#121418" stroke="#121418"></path><path d="M640 239L589 99L461 206Z" fill="#121315" stroke="#121315"></path><path d="M371 65L262 102L330 188Z" fill="#121315" stroke="#121315"></path><path d="M364 491L525 507L396 399Z" fill="#0e1827" stroke="#0e1827"></path><path d="M522 414L626 468L587 371Z" fill="#0c182a" stroke="#0c182a"></path><path d="M698 289L640 239L586 301Z" fill="#121315" stroke="#121315"></path><path d="M640 239L682 236L589 99Z" fill="#11151e" stroke="#11151e"></path><path d="M698 289L586 301L692 379Z" fill="#11151e" stroke="#11151e"></path><path d="M188 502L328 523L277 396Z" fill="#11151e" stroke="#11151e"></path><path d="M364 491L494 600L525 507Z" fill="#0a192d" stroke="#0a192d"></path><path d="M262 102L166 236L330 188Z" fill="#121212" stroke="#121212"></path><path d="M196 284L129 365L211 364Z" fill="#0c182a" stroke="#0c182a"></path><path d="M692 379L586 301L587 371Z" fill="#0c182a" stroke="#0c182a"></path><path d="M525 507L626 468L522 414Z" fill="#0a192d" stroke="#0a192d"></path><path d="M459 0L427 0L497 63Z" fill="#121315" stroke="#121315"></path><path d="M497 63L427 0L371 65Z" fill="#0a192d" stroke="#0a192d"></path><path d="M371 65L269 0L262 102Z" fill="#0e1827" stroke="#0e1827"></path><path d="M586 0L459 0L497 63Z" fill="#11141b" stroke="#11141b"></path><path d="M626 468L692 379L587 371Z" fill="#121418" stroke="#121418"></path><path d="M74 273L129 365L196 284Z" fill="#121315" stroke="#121315"></path><path d="M211 364L188 502L277 396Z" fill="#081a30" stroke="#081a30"></path><path d="M427 0L269 0L371 65Z" fill="#0f1724" stroke="#0f1724"></path><path d="M262 102L167 68L166 236Z" fill="#0e1827" stroke="#0e1827"></path><path d="M714 0L586 0L589 99Z" fill="#101621" stroke="#101621"></path><path d="M589 99L586 0L497 63Z" fill="#101621" stroke="#101621"></path><path d="M262 600L385 600L328 523Z" fill="#0e1827" stroke="#0e1827"></path><path d="M328 523L385 600L364 491Z" fill="#121418" stroke="#121418"></path><path d="M525 507L613 600L626 468Z" fill="#0c182a" stroke="#0c182a"></path><path d="M129 365L188 502L211 364Z" fill="#121315" stroke="#121315"></path><path d="M385 600L494 600L364 491Z" fill="#0a192d" stroke="#0a192d"></path><path d="M205 0L167 68L262 102Z" fill="#121212" stroke="#121212"></path><path d="M166 236L74 273L196 284Z" fill="#101621" stroke="#101621"></path><path d="M682 236L759 169L589 99Z" fill="#0e1827" stroke="#0e1827"></path><path d="M783 259L759 169L682 236Z" fill="#121315" stroke="#121315"></path><path d="M783 259L682 236L698 289Z" fill="#121315" stroke="#121315"></path><path d="M64 211L74 273L166 236Z" fill="#11141b" stroke="#11141b"></path><path d="M129 365L100 466L188 502Z" fill="#0e1827" stroke="#0e1827"></path><path d="M759 413L698 289L692 379Z" fill="#11141b" stroke="#11141b"></path><path d="M759 413L783 259L698 289Z" fill="#11151e" stroke="#11151e"></path><path d="M724 485L692 379L626 468Z" fill="#121315" stroke="#121315"></path><path d="M724 485L759 413L692 379Z" fill="#0a192d" stroke="#0a192d"></path><path d="M269 0L205 0L262 102Z" fill="#11151e" stroke="#11151e"></path><path d="M188 502L262 600L328 523Z" fill="#101621" stroke="#101621"></path><path d="M613 600L724 485L626 468Z" fill="#121418" stroke="#121418"></path><path d="M167 68L97 132L166 236Z" fill="#081a30" stroke="#081a30"></path><path d="M92 0L97 132L167 68Z" fill="#081a30" stroke="#081a30"></path><path d="M97 132L64 211L166 236Z" fill="#0c182a" stroke="#0c182a"></path><path d="M494 600L613 600L525 507Z" fill="#11141b" stroke="#11141b"></path><path d="M0 277L129 365L74 273Z" fill="#11151e" stroke="#11151e"></path><path d="M0 437L100 466L129 365Z" fill="#11151e" stroke="#11151e"></path><path d="M188 502L175 600L262 600Z" fill="#0c182a" stroke="#0c182a"></path><path d="M791 87L739 61L759 169Z" fill="#11151e" stroke="#11151e"></path><path d="M759 169L739 61L589 99Z" fill="#121212" stroke="#121212"></path><path d="M739 61L714 0L589 99Z" fill="#101621" stroke="#101621"></path><path d="M757 600L776 479L724 485Z" fill="#121418" stroke="#121418"></path><path d="M724 485L776 479L759 413Z" fill="#11141b" stroke="#11141b"></path><path d="M759 413L900 330L783 259Z" fill="#101621" stroke="#101621"></path><path d="M133 600L175 600L188 502Z" fill="#11141b" stroke="#11141b"></path><path d="M900 95L791 87L759 169Z" fill="#121315" stroke="#121315"></path><path d="M739 61L812 0L714 0Z" fill="#0a192d" stroke="#0a192d"></path><path d="M900 218L759 169L783 259Z" fill="#0c182a" stroke="#0c182a"></path><path d="M0 212L0 277L64 211Z" fill="#0a192d" stroke="#0a192d"></path><path d="M64 211L0 277L74 273Z" fill="#0e1827" stroke="#0e1827"></path><path d="M0 63L0 212L97 132Z" fill="#121315" stroke="#121315"></path><path d="M97 132L0 212L64 211Z" fill="#101621" stroke="#101621"></path><path d="M100 466L133 600L188 502Z" fill="#0e1827" stroke="#0e1827"></path><path d="M0 517L133 600L100 466Z" fill="#0e1827" stroke="#0e1827"></path><path d="M205 0L92 0L167 68Z" fill="#121418" stroke="#121418"></path><path d="M613 600L737 600L724 485Z" fill="#121418" stroke="#121418"></path><path d="M0 277L0 437L129 365Z" fill="#121212" stroke="#121212"></path><path d="M737 600L757 600L724 485Z" fill="#0c182a" stroke="#0c182a"></path><path d="M900 378L759 413L776 479Z" fill="#11141b" stroke="#11141b"></path><path d="M900 378L900 330L759 413Z" fill="#0e1827" stroke="#0e1827"></path><path d="M900 95L812 0L791 87Z" fill="#121418" stroke="#121418"></path><path d="M791 87L812 0L739 61Z" fill="#121212" stroke="#121212"></path><path d="M900 330L900 218L783 259Z" fill="#0f1724" stroke="#0f1724"></path><path d="M92 0L0 63L97 132Z" fill="#0f1724" stroke="#0f1724"></path><path d="M900 535L900 378L776 479Z" fill="#11151e" stroke="#11151e"></path><path d="M0 437L0 517L100 466Z" fill="#0a192d" stroke="#0a192d"></path><path d="M900 218L900 95L759 169Z" fill="#101621" stroke="#101621"></path><path d="M92 0L0 0L0 63Z" fill="#11141b" stroke="#11141b"></path><path d="M0 517L0 600L133 600Z" fill="#081a30" stroke="#081a30"></path><path d="M757 600L900 535L776 479Z" fill="#0a192d" stroke="#0a192d"></path><path d="M900 95L900 0L812 0Z" fill="#081a30" stroke="#081a30"></path><path d="M757 600L900 600L900 535Z" fill="#0c182a" stroke="#0c182a"></path></g></svg>